<mxfile host="Electron" agent="Mozilla/5.0 (Windows NT 10.0; Win64; x64) AppleWebKit/537.36 (KHTML, like Gecko) draw.io/24.7.17 Chrome/128.0.6613.36 Electron/32.0.1 Safari/537.36" version="24.7.17">
  <diagram id="C5RBs43oDa-KdzZeNtuy" name="Page-1">
    <mxGraphModel dx="941" dy="644" grid="1" gridSize="10" guides="1" tooltips="1" connect="1" arrows="1" fold="1" page="1" pageScale="1" pageWidth="827" pageHeight="1169" math="0" shadow="0">
      <root>
        <mxCell id="WIyWlLk6GJQsqaUBKTNV-0" />
        <mxCell id="WIyWlLk6GJQsqaUBKTNV-1" parent="WIyWlLk6GJQsqaUBKTNV-0" />
        <mxCell id="OcFIgTM93CLKtbYcLT6S-0" value="Start" style="ellipse;whiteSpace=wrap;html=1;" vertex="1" parent="WIyWlLk6GJQsqaUBKTNV-1">
          <mxGeometry x="20" y="40" width="120" height="70" as="geometry" />
        </mxCell>
        <mxCell id="OcFIgTM93CLKtbYcLT6S-15" style="edgeStyle=orthogonalEdgeStyle;rounded=0;orthogonalLoop=1;jettySize=auto;html=1;exitX=0.5;exitY=1;exitDx=0;exitDy=0;entryX=0.5;entryY=1;entryDx=0;entryDy=0;" edge="1" parent="WIyWlLk6GJQsqaUBKTNV-1" source="OcFIgTM93CLKtbYcLT6S-1" target="OcFIgTM93CLKtbYcLT6S-2">
          <mxGeometry relative="1" as="geometry" />
        </mxCell>
        <mxCell id="OcFIgTM93CLKtbYcLT6S-1" value="input name =&lt;div&gt;&amp;nbsp;&quot;Please enter&lt;div&gt;last name.&quot;&lt;/div&gt;&lt;/div&gt;" style="shape=parallelogram;perimeter=parallelogramPerimeter;whiteSpace=wrap;html=1;fixedSize=1;" vertex="1" parent="WIyWlLk6GJQsqaUBKTNV-1">
          <mxGeometry x="160" y="100" width="130" height="60" as="geometry" />
        </mxCell>
        <mxCell id="OcFIgTM93CLKtbYcLT6S-16" style="edgeStyle=orthogonalEdgeStyle;rounded=0;orthogonalLoop=1;jettySize=auto;html=1;exitX=0.5;exitY=0;exitDx=0;exitDy=0;entryX=0.75;entryY=0;entryDx=0;entryDy=0;" edge="1" parent="WIyWlLk6GJQsqaUBKTNV-1" source="OcFIgTM93CLKtbYcLT6S-2" target="OcFIgTM93CLKtbYcLT6S-3">
          <mxGeometry relative="1" as="geometry" />
        </mxCell>
        <mxCell id="OcFIgTM93CLKtbYcLT6S-2" value="input bathNum =&amp;nbsp;&lt;div&gt;15&lt;/div&gt;" style="shape=parallelogram;perimeter=parallelogramPerimeter;whiteSpace=wrap;html=1;fixedSize=1;" vertex="1" parent="WIyWlLk6GJQsqaUBKTNV-1">
          <mxGeometry x="320" y="60" width="130" height="60" as="geometry" />
        </mxCell>
        <mxCell id="OcFIgTM93CLKtbYcLT6S-17" style="edgeStyle=orthogonalEdgeStyle;rounded=0;orthogonalLoop=1;jettySize=auto;html=1;exitX=1;exitY=0.5;exitDx=0;exitDy=0;entryX=0;entryY=0.5;entryDx=0;entryDy=0;" edge="1" parent="WIyWlLk6GJQsqaUBKTNV-1" source="OcFIgTM93CLKtbYcLT6S-3" target="OcFIgTM93CLKtbYcLT6S-5">
          <mxGeometry relative="1" as="geometry" />
        </mxCell>
        <mxCell id="OcFIgTM93CLKtbYcLT6S-3" value="input otherRooms&lt;div&gt;= 6&lt;/div&gt;" style="shape=parallelogram;perimeter=parallelogramPerimeter;whiteSpace=wrap;html=1;fixedSize=1;" vertex="1" parent="WIyWlLk6GJQsqaUBKTNV-1">
          <mxGeometry x="480" y="100" width="130" height="60" as="geometry" />
        </mxCell>
        <mxCell id="OcFIgTM93CLKtbYcLT6S-4" style="edgeStyle=orthogonalEdgeStyle;rounded=0;orthogonalLoop=1;jettySize=auto;html=1;exitX=1;exitY=0.5;exitDx=0;exitDy=0;entryX=0.615;entryY=-0.017;entryDx=0;entryDy=0;entryPerimeter=0;" edge="1" parent="WIyWlLk6GJQsqaUBKTNV-1" source="OcFIgTM93CLKtbYcLT6S-0" target="OcFIgTM93CLKtbYcLT6S-1">
          <mxGeometry relative="1" as="geometry" />
        </mxCell>
        <mxCell id="OcFIgTM93CLKtbYcLT6S-18" style="edgeStyle=orthogonalEdgeStyle;rounded=0;orthogonalLoop=1;jettySize=auto;html=1;exitX=0.5;exitY=1;exitDx=0;exitDy=0;entryX=0.5;entryY=0;entryDx=0;entryDy=0;" edge="1" parent="WIyWlLk6GJQsqaUBKTNV-1" source="OcFIgTM93CLKtbYcLT6S-5" target="OcFIgTM93CLKtbYcLT6S-6">
          <mxGeometry relative="1" as="geometry" />
        </mxCell>
        <mxCell id="OcFIgTM93CLKtbYcLT6S-5" value="bathCharge =&lt;div&gt;bathNum * 15&lt;/div&gt;" style="rounded=0;whiteSpace=wrap;html=1;" vertex="1" parent="WIyWlLk6GJQsqaUBKTNV-1">
          <mxGeometry x="660" y="120" width="120" height="60" as="geometry" />
        </mxCell>
        <mxCell id="OcFIgTM93CLKtbYcLT6S-19" style="edgeStyle=orthogonalEdgeStyle;rounded=0;orthogonalLoop=1;jettySize=auto;html=1;exitX=0;exitY=0.5;exitDx=0;exitDy=0;entryX=1;entryY=0.5;entryDx=0;entryDy=0;" edge="1" parent="WIyWlLk6GJQsqaUBKTNV-1" source="OcFIgTM93CLKtbYcLT6S-6" target="OcFIgTM93CLKtbYcLT6S-11">
          <mxGeometry relative="1" as="geometry" />
        </mxCell>
        <mxCell id="OcFIgTM93CLKtbYcLT6S-6" value="roomCharge =&lt;div&gt;otherRooms * 10&lt;/div&gt;" style="rounded=0;whiteSpace=wrap;html=1;" vertex="1" parent="WIyWlLk6GJQsqaUBKTNV-1">
          <mxGeometry x="660" y="250" width="120" height="60" as="geometry" />
        </mxCell>
        <mxCell id="OcFIgTM93CLKtbYcLT6S-21" style="edgeStyle=orthogonalEdgeStyle;rounded=0;orthogonalLoop=1;jettySize=auto;html=1;exitX=0.5;exitY=1;exitDx=0;exitDy=0;entryX=0.5;entryY=0;entryDx=0;entryDy=0;" edge="1" parent="WIyWlLk6GJQsqaUBKTNV-1" source="OcFIgTM93CLKtbYcLT6S-7" target="OcFIgTM93CLKtbYcLT6S-8">
          <mxGeometry relative="1" as="geometry" />
        </mxCell>
        <mxCell id="OcFIgTM93CLKtbYcLT6S-7" value="serviceCharge =&lt;div&gt;40 + bathPlusRooms&lt;/div&gt;" style="rounded=0;whiteSpace=wrap;html=1;" vertex="1" parent="WIyWlLk6GJQsqaUBKTNV-1">
          <mxGeometry x="660" y="380" width="120" height="60" as="geometry" />
        </mxCell>
        <mxCell id="OcFIgTM93CLKtbYcLT6S-22" style="edgeStyle=orthogonalEdgeStyle;rounded=0;orthogonalLoop=1;jettySize=auto;html=1;exitX=0;exitY=0.5;exitDx=0;exitDy=0;entryX=0.5;entryY=1;entryDx=0;entryDy=0;" edge="1" parent="WIyWlLk6GJQsqaUBKTNV-1" source="OcFIgTM93CLKtbYcLT6S-8" target="OcFIgTM93CLKtbYcLT6S-9">
          <mxGeometry relative="1" as="geometry" />
        </mxCell>
        <mxCell id="OcFIgTM93CLKtbYcLT6S-8" value="output name" style="shape=parallelogram;perimeter=parallelogramPerimeter;whiteSpace=wrap;html=1;fixedSize=1;" vertex="1" parent="WIyWlLk6GJQsqaUBKTNV-1">
          <mxGeometry x="655" y="520" width="130" height="60" as="geometry" />
        </mxCell>
        <mxCell id="OcFIgTM93CLKtbYcLT6S-23" style="edgeStyle=orthogonalEdgeStyle;rounded=0;orthogonalLoop=1;jettySize=auto;html=1;exitX=0;exitY=0.5;exitDx=0;exitDy=0;entryX=0.5;entryY=1;entryDx=0;entryDy=0;" edge="1" parent="WIyWlLk6GJQsqaUBKTNV-1" source="OcFIgTM93CLKtbYcLT6S-9" target="OcFIgTM93CLKtbYcLT6S-10">
          <mxGeometry relative="1" as="geometry" />
        </mxCell>
        <mxCell id="OcFIgTM93CLKtbYcLT6S-9" value="output bathNum,&amp;nbsp;&lt;div&gt;bathCharge&lt;/div&gt;" style="shape=parallelogram;perimeter=parallelogramPerimeter;whiteSpace=wrap;html=1;fixedSize=1;" vertex="1" parent="WIyWlLk6GJQsqaUBKTNV-1">
          <mxGeometry x="480" y="460" width="130" height="60" as="geometry" />
        </mxCell>
        <mxCell id="OcFIgTM93CLKtbYcLT6S-24" style="edgeStyle=orthogonalEdgeStyle;rounded=0;orthogonalLoop=1;jettySize=auto;html=1;exitX=0;exitY=0.5;exitDx=0;exitDy=0;entryX=0.5;entryY=1;entryDx=0;entryDy=0;" edge="1" parent="WIyWlLk6GJQsqaUBKTNV-1" source="OcFIgTM93CLKtbYcLT6S-10" target="OcFIgTM93CLKtbYcLT6S-12">
          <mxGeometry relative="1" as="geometry" />
        </mxCell>
        <mxCell id="OcFIgTM93CLKtbYcLT6S-10" value="output otherRooms,&lt;div&gt;roomCharge&lt;/div&gt;" style="shape=parallelogram;perimeter=parallelogramPerimeter;whiteSpace=wrap;html=1;fixedSize=1;" vertex="1" parent="WIyWlLk6GJQsqaUBKTNV-1">
          <mxGeometry x="330" y="400" width="130" height="60" as="geometry" />
        </mxCell>
        <mxCell id="OcFIgTM93CLKtbYcLT6S-20" style="edgeStyle=orthogonalEdgeStyle;rounded=0;orthogonalLoop=1;jettySize=auto;html=1;exitX=0.5;exitY=1;exitDx=0;exitDy=0;entryX=0;entryY=0.5;entryDx=0;entryDy=0;" edge="1" parent="WIyWlLk6GJQsqaUBKTNV-1" source="OcFIgTM93CLKtbYcLT6S-11" target="OcFIgTM93CLKtbYcLT6S-7">
          <mxGeometry relative="1" as="geometry" />
        </mxCell>
        <mxCell id="OcFIgTM93CLKtbYcLT6S-11" value="bathPlusRooms =&lt;div&gt;bathCharge +&lt;/div&gt;&lt;div&gt;roomCharge&lt;/div&gt;" style="rounded=0;whiteSpace=wrap;html=1;" vertex="1" parent="WIyWlLk6GJQsqaUBKTNV-1">
          <mxGeometry x="460" y="250" width="120" height="60" as="geometry" />
        </mxCell>
        <mxCell id="OcFIgTM93CLKtbYcLT6S-26" style="edgeStyle=orthogonalEdgeStyle;rounded=0;orthogonalLoop=1;jettySize=auto;html=1;exitX=0.5;exitY=0;exitDx=0;exitDy=0;entryX=0.5;entryY=0;entryDx=0;entryDy=0;" edge="1" parent="WIyWlLk6GJQsqaUBKTNV-1" source="OcFIgTM93CLKtbYcLT6S-12" target="OcFIgTM93CLKtbYcLT6S-13">
          <mxGeometry relative="1" as="geometry" />
        </mxCell>
        <mxCell id="OcFIgTM93CLKtbYcLT6S-12" value="output&lt;div&gt;bathPlusRooms&lt;/div&gt;" style="shape=parallelogram;perimeter=parallelogramPerimeter;whiteSpace=wrap;html=1;fixedSize=1;" vertex="1" parent="WIyWlLk6GJQsqaUBKTNV-1">
          <mxGeometry x="180" y="340" width="130" height="60" as="geometry" />
        </mxCell>
        <mxCell id="OcFIgTM93CLKtbYcLT6S-27" style="edgeStyle=orthogonalEdgeStyle;rounded=0;orthogonalLoop=1;jettySize=auto;html=1;exitX=0.5;exitY=1;exitDx=0;exitDy=0;entryX=0.5;entryY=0;entryDx=0;entryDy=0;" edge="1" parent="WIyWlLk6GJQsqaUBKTNV-1" source="OcFIgTM93CLKtbYcLT6S-13" target="OcFIgTM93CLKtbYcLT6S-14">
          <mxGeometry relative="1" as="geometry" />
        </mxCell>
        <mxCell id="OcFIgTM93CLKtbYcLT6S-13" value="output &quot;The program&lt;div&gt;is complete!&quot;&lt;/div&gt;" style="shape=parallelogram;perimeter=parallelogramPerimeter;whiteSpace=wrap;html=1;fixedSize=1;" vertex="1" parent="WIyWlLk6GJQsqaUBKTNV-1">
          <mxGeometry x="40" y="280" width="130" height="60" as="geometry" />
        </mxCell>
        <mxCell id="OcFIgTM93CLKtbYcLT6S-14" value="Stop" style="ellipse;whiteSpace=wrap;html=1;" vertex="1" parent="WIyWlLk6GJQsqaUBKTNV-1">
          <mxGeometry x="45" y="505" width="120" height="75" as="geometry" />
        </mxCell>
      </root>
    </mxGraphModel>
  </diagram>
</mxfile>
